<?xml version="1.0" encoding="UTF-8"?>
<!DOCTYPE svg PUBLIC "-//W3C//DTD SVG 1.1//EN" "http://www.w3.org/Graphics/SVG/1.1/DTD/svg11.dtd">
<svg version="1.1" xmlns="http://www.w3.org/2000/svg" xmlns:xlink="http://www.w3.org/1999/xlink" x="0" y="0" width="512" height="512" viewBox="0, 0, 512, 512">
  <g id="Layer_1">
    <path d="M512,258 C512,116.581 397.419,2 256,2 C114.581,2 0,116.581 0,258 C0,385.773 93.615,491.683 216,510.903 L216,332.003 L150.968,332.003 L150.968,258 L216,258 L216,201.597 C216,137.443 254.194,102.005 312.692,102.005 C340.707,102.005 370.003,107.001 370.003,107.001 L370.003,169.969 L337.714,169.969 C305.92,169.969 296,189.706 296,209.948 L296,258 L366.999,258 L355.644,332.003 L296,332.003 L296,510.903 C418.384,491.683 512,385.773 512,258 z" fill="#000000"/>
  </g>
</svg>
