<?xml version="1.0" encoding="UTF-8"?>
<!DOCTYPE svg PUBLIC "-//W3C//DTD SVG 1.1//EN" "http://www.w3.org/Graphics/SVG/1.1/DTD/svg11.dtd">
<svg version="1.1" xmlns="http://www.w3.org/2000/svg" xmlns:xlink="http://www.w3.org/1999/xlink" x="0" y="0" width="120" height="37.232" viewBox="0, 0, 120, 37.232">
  <g id="g853">
    <path d="M42.843,22.721 L42.843,14.546 L48.136,14.546 L48.136,16.06 L44.823,16.06 L44.823,17.819 L47.302,17.819 L47.302,19.332 L44.823,19.332 L44.823,22.721 z M56.405,18.61 C56.405,17.896 56.21,17.325 55.82,16.899 C55.431,16.472 54.909,16.258 54.257,16.258 C53.604,16.258 53.083,16.472 52.693,16.899 C52.303,17.325 52.108,17.896 52.108,18.61 C52.108,19.325 52.303,19.895 52.693,20.322 C53.083,20.749 53.604,20.962 54.257,20.962 C54.909,20.962 55.431,20.749 55.82,20.322 C56.21,19.895 56.405,19.325 56.405,18.61 z M50.093,18.61 C50.093,17.399 50.496,16.4 51.303,15.612 C52.11,14.824 53.098,14.43 54.268,14.43 C55.438,14.43 56.423,14.824 57.222,15.612 C58.021,16.4 58.421,17.399 58.421,18.61 C58.421,19.821 58.019,20.823 57.216,21.615 C56.413,22.406 55.429,22.802 54.263,22.802 C53.096,22.802 52.11,22.406 51.303,21.615 C50.496,20.823 50.092,19.821 50.092,18.61 z M62.74,19.542 L62.74,22.721 L60.759,22.721 L60.759,14.546 L63.968,14.546 C64.91,14.546 65.644,14.791 66.169,15.28 C66.694,15.769 66.956,16.359 66.956,17.05 C66.956,17.523 66.814,17.985 66.528,18.436 C66.242,18.886 65.775,19.204 65.126,19.39 L67.119,22.721 L64.802,22.721 L62.972,19.542 z M62.74,16.06 L62.74,18.028 L63.968,18.028 C64.269,18.028 64.507,17.939 64.68,17.76 C64.854,17.582 64.941,17.347 64.941,17.056 C64.941,16.765 64.852,16.526 64.675,16.34 C64.497,16.153 64.261,16.06 63.968,16.06 z M78.77,14.546 L78.77,22.721 L76.789,22.721 L76.789,18.11 L74.901,22.721 L73.43,22.721 L71.542,18.11 L71.542,22.721 L69.561,22.721 L69.561,14.546 L71.832,14.546 L74.171,20.182 L76.5,14.546 z M83.721,16.2 C83.562,16.332 83.483,16.522 83.483,16.77 C83.483,17.019 83.557,17.219 83.703,17.37 C83.85,17.522 84.041,17.638 84.277,17.719 C84.512,17.801 84.775,17.879 85.064,17.952 C85.354,18.026 85.642,18.115 85.927,18.22 C86.202,18.319 86.465,18.45 86.709,18.61 C86.945,18.765 87.136,18.985 87.283,19.268 C87.429,19.551 87.503,19.891 87.503,20.287 C87.503,20.978 87.223,21.57 86.663,22.063 C86.103,22.556 85.365,22.802 84.45,22.802 C83.535,22.802 82.798,22.581 82.238,22.138 C81.678,21.696 81.398,21.067 81.398,20.252 L83.506,20.252 C83.56,20.904 83.892,21.23 84.503,21.23 C84.788,21.23 85.012,21.155 85.174,21.003 C85.337,20.852 85.418,20.66 85.418,20.427 C85.418,20.194 85.344,20.004 85.198,19.856 C85.051,19.709 84.86,19.592 84.624,19.507 C84.366,19.415 84.103,19.335 83.836,19.268 C83.544,19.193 83.256,19.102 82.974,18.994 C82.7,18.892 82.438,18.761 82.192,18.605 C81.956,18.453 81.765,18.236 81.618,17.952 C81.472,17.669 81.398,17.333 81.398,16.945 C81.398,16.184 81.68,15.575 82.244,15.117 C82.808,14.659 83.528,14.43 84.404,14.43 C85.281,14.43 85.989,14.63 86.53,15.03 C87.07,15.429 87.352,16.06 87.375,16.922 L85.221,16.922 C85.19,16.627 85.095,16.4 84.937,16.241 C84.779,16.082 84.576,16.002 84.329,16.002 C84.082,16.002 83.879,16.068 83.721,16.2 z M96.328,17.05 C96.328,17.601 96.131,18.133 95.737,18.645 C95.529,18.909 95.218,19.125 94.805,19.292 C94.391,19.458 93.903,19.542 93.339,19.542 L92.111,19.542 L92.111,22.721 L90.131,22.721 L90.131,14.546 L93.339,14.546 C94.281,14.546 95.015,14.791 95.54,15.28 C96.065,15.769 96.328,16.359 96.328,17.05 z M92.111,18.028 L93.339,18.028 C93.64,18.028 93.878,17.939 94.052,17.76 C94.225,17.582 94.312,17.347 94.312,17.056 C94.312,16.765 94.223,16.526 94.046,16.34 C93.868,16.153 93.633,16.06 93.339,16.06 L92.111,16.06 L92.111,18.028 z M100.566,19.542 L100.566,22.721 L98.585,22.721 L98.585,14.546 L101.794,14.546 C102.736,14.546 103.469,14.791 103.994,15.28 C104.52,15.769 104.782,16.359 104.782,17.05 C104.782,17.523 104.639,17.985 104.354,18.436 C104.068,18.886 103.601,19.204 102.952,19.39 L104.944,22.721 L102.628,22.721 L100.798,19.542 z M100.566,16.06 L100.566,18.028 L101.794,18.028 C102.095,18.028 102.332,17.939 102.506,17.76 C102.68,17.582 102.767,17.347 102.767,17.056 C102.767,16.765 102.678,16.526 102.5,16.34 C102.323,16.153 102.087,16.06 101.794,16.06 z M112.31,14.523 L112.31,16.037 L109.368,16.037 L109.368,17.795 L111.963,17.795 L111.963,19.309 L109.368,19.309 L109.368,21.207 L112.31,21.207 L112.31,22.721 L107.387,22.721 L107.387,14.523 z M120,14.523 L120,16.037 L117.058,16.037 L117.058,17.795 L119.653,17.795 L119.653,19.309 L117.058,19.309 L117.058,21.207 L120,21.207 L120,22.721 L115.077,22.721 L115.077,14.523 z" fill="#FFFFFF" id="path4"/>
    <g id="g10">
      <path d="M18.519,0 C28.746,-0 37.037,8.335 37.037,18.616 C37.037,28.898 28.746,37.232 18.519,37.232 C8.291,37.232 -0,28.898 -0,18.616 C-0,8.335 8.291,-0 18.519,-0 z M18.519,22.924 L10.101,22.924 L10.101,28.001 L18.519,28.001 L18.519,22.924 z M26.936,16.154 L10.101,16.154 L10.101,21.231 L26.936,21.231 L26.936,16.154 z M26.936,9.385 L10.101,9.385 L10.101,14.462 L26.936,14.462 L26.936,9.385 z" fill="#FFFFFF"/>
    </g>
  </g>
</svg>
